
<svg xmlns="http://www.w3.org/2000/svg" version="1.1" xmlns:xlink="http://www.w3.org/1999/xlink" preserveAspectRatio="none" x="0px" y="0px" width="319px" height="356px" viewBox="0 0 319 356">
<defs>
<g id="face_0_Layer0_0_FILL">
<path fill="#E1B98B" stroke="none" d="
M 189.8 93.2
Q 188.9 30.5 188.8 30.4 188.75 30.35 94.4 15.2 0.1 0.1 0 0 3.95 160.15 4.6 160.8 4.45 160.65 5.65 167.5 7.1 175.75 9.05 183.65 15.15 208.55 23 218.4 30.7 228.1 39.25 234.2 44.15 237.65 54 244.2 55.95 245.7 62.05 251.1 67.55 255.95 71.35 258.65 83.5 267.2 96.2 267.2 109.1 267.2 119.3 260.6 122.8 258.3 127.65 254.15 134.85 247.95 135.8 247.2 147.9 238.55 154.2 233.8 165.55 225.3 172 216.8 178.65 208.1 185.4 181.25 190.9 156.1 190.8 156 190.75 155.95 189.8 93.2 Z"/>
</g>

<g id="jfhead_0_Layer4_0_FILL">
<path fill="#C99569" stroke="none" d="
M 145.7 257.75
Q 147.3 264.2 152.6 272.65 159.7 284.1 166.5 284.1 173.3 284.1 180.35 272.35 185.65 263.6 186.95 257.75 175.1 255.35 166.4 255.35 157.95 255.35 145.7 257.75 Z"/>
</g>

<g id="eye_0_Layer1_0_FILL">
<path fill="#536175" stroke="none" d="
M 10.4 0
Q 6.1 0 3.05 3.05 0 6.1 0 10.4 0 14.7 3.05 17.75 6.1 20.8 10.4 20.8 14.7 20.8 17.75 17.75 20.8 14.7 20.8 10.4 20.8 6.1 17.75 3.05 14.7 0 10.4 0 Z"/>
</g>

<g id="eyebrow_0_Layer0_0_FILL">
<path fill="#B69158" stroke="none" d="
M 49.7 -1.95
Q 35.6 -8.35 21.7 -7.25 9.75 -6.3 -1.4 0.05 -3.35 1.15 -4.2 2.9 -5.05 4.65 -4.25 6.3 -3.45 8 -1.15 8.1 0.9 8.15 2.9 6.95 11.2 1.9 22.5 2.05 33.5 2.15 45.8 7.2 47.65 7.9 49.65 7.25 51.95 6.55 52.6 4.6 53.35 2.5 52.5 0.7 51.65 -1.05 49.7 -1.95 Z"/>
</g>

<g id="jfhead_0_Layer1_0_FILL">
<path fill="#CD805D" stroke="none" d="
M 120.3 282.2
Q 119.65 284.15 120.15 285.95 120.7 287.95 122.5 288.95 128.05 292.15 139.45 295.05 153.6 298.65 166.6 298.65 179.4 298.65 193.35 295 203.7 292.35 209.7 289.25 211.65 288.3 212.45 286.5 213.35 284.6 212.6 282.4 212.05 280.7 210.2 280 208.15 279.3 206 280.45 199.95 283.8 191.35 286.3 178.9 289.9 166.25 289.9 153.5 289.9 141.4 286.35 132.8 283.85 126.75 280.35 124.9 279.3 122.9 279.85 120.9 280.4 120.3 282.2 Z"/>
</g>

<g id="jfhead_0_Layer0_0_FILL">
<path fill="#94713B" stroke="none" d="
M 274.65 83.5
Q 267.75 66.45 251.65 52.15 235.95 38.2 215.25 30.05 193.95 21.65 172.5 21.5 149.4 21.3 130.4 30.8 132.65 24.1 130.6 14.25 128.4 3.6 122.3 -4.1 122.4 9.5 111.8 27.3 100.35 46.45 86.4 52 92.7 44.8 91.25 33.2 89.95 22.35 83.2 15.6 85.2 24.65 80 33.45 76.7 39 67.2 48.6 57.05 58.85 53.45 64.2 47.1 73.7 47.45 83.45 41.1 80.15 38.1 71 35.2 62.2 35.9 49.8 24.2 63.75 23.25 85.05 22.3 106.8 33.45 122.65 28.05 126.1 18.7 125.9 9.1 125.7 2.25 121.7 5.6 138 17.35 149.35 28.4 160 42.25 162.25 37.75 175.3 14.45 179.8 21.95 189.4 30.3 194.1 40.55 199.8 56.45 201 56.75 208 53.1 213.75 49.65 219.2 43.6 222 47.85 225.55 56.65 225.25 64.85 225.05 69 222.2 67.85 230.4 68.45 244.1 69.05 257.45 70.8 264.2 76.65 270.35 86.1 272.55 78.05 255.65 76.05 235.5 73.75 211.9 81.05 192.05 74.9 180.45 73.05 167.3 71.25 154.2 74.1 142.25 77.1 129.75 84.65 120.8 92.75 111.2 105.05 107.05 129.2 98.95 156.9 110.7 165.85 114.5 178.8 122.05 194.8 131.4 198.05 133.05 212.6 140.5 226.15 144.95 238.3 148.95 245.65 149.3 250.8 158.9 252.4 166.95 254.8 179.1 250.7 192.05 258.7 211.6 257.25 233.6 256 253 247.6 272.6 252.1 271.7 255.8 269.75 259.9 267.55 262.2 264.4 264.3 255.85 264.65 242.05 264.95 231 264.2 222.6 271.05 226.4 280.5 225.65 289.15 225 293.4 221.5 285.75 217.95 280.4 210.45 276.15 204.5 274.25 197.6 288.4 199.85 300.7 194.65 314.75 188.7 320.8 174.75 309.3 174.75 299.55 169.8 290.7 165.25 287.05 158.8 303.55 156.7 311.7 143.55 319.5 130.9 318.25 110.75 311.25 117.1 303.75 119.15 296.15 121.3 287.3 119.2 299.55 108.6 298.6 91.75 297.7 75.95 286 62 287.05 70.05 283.65 76.25 280.3 82.25 274.65 83.5 Z"/>
</g>
</defs>

<g transform="matrix( 1, 0, 0, 1, -2.25,4.1) ">
<g transform="matrix( 1, 0, 0, 1, 69.35,84.15) ">
<g transform="matrix( 1, 0, 0, 1, 0,0) ">
<use xlink:href="#face_0_Layer0_0_FILL"/>
</g>
</g>

<g transform="matrix( 1, 0, 0, 1, 0,0) ">
<use xlink:href="#jfhead_0_Layer4_0_FILL"/>
</g>

<g transform="matrix( 1, 0, 0, 1, 199.35,194.95) ">
<g transform="matrix( 1, 0, 0, 1, 0,0) ">
<use xlink:href="#eye_0_Layer1_0_FILL"/>
</g>
</g>

<g transform="matrix( 1, 0, 0, 1, 112.15,194.95) ">
<g transform="matrix( 1, 0, 0, 1, 0,0) ">
<use xlink:href="#eye_0_Layer1_0_FILL"/>
</g>
</g>

<g transform="matrix( 1, 0, 0, 1, 97.2,178.9) ">
<g transform="matrix( 1, 0, 0, 1, 0,0) ">
<use xlink:href="#eyebrow_0_Layer0_0_FILL"/>
</g>
</g>

<g transform="matrix( -1, 0, 0, 1, 235.75,178.9) ">
<g transform="matrix( 1, 0, 0, 1, 0,0) ">
<use xlink:href="#eyebrow_0_Layer0_0_FILL"/>
</g>
</g>

<g transform="matrix( 1, 0, 0, 1, 0,0) ">
<use xlink:href="#jfhead_0_Layer1_0_FILL"/>
</g>

<g transform="matrix( 1, 0, 0, 1, 0,0) ">
<use xlink:href="#jfhead_0_Layer0_0_FILL"/>
</g>
</g>
</svg>
